<?xml version="1.0" encoding="utf-8"?>
<!-- Generator: Adobe Illustrator 17.1.0, SVG Export Plug-In . SVG Version: 6.00 Build 0)  -->
<!DOCTYPE svg PUBLIC "-//W3C//DTD SVG 1.1//EN" "http://www.w3.org/Graphics/SVG/1.1/DTD/svg11.dtd">
<svg version="1.1" id="Layer_1" xmlns="http://www.w3.org/2000/svg" xmlns:xlink="http://www.w3.org/1999/xlink" x="0px" y="0px"
	 viewBox="0 0 31.528 26.865" enable-background="new 0 0 31.528 26.865" xml:space="preserve">
<path d="M29.938,3.327c-1.697-0.958-5.485-1.299-8.464-1.299c-0.26,0-0.518,0.004-0.772,0.008c-0.213-0.255-0.494-0.484-0.864-0.694
	c-3.035-1.711-14.24-1.866-17.975,0c-3.735,1.869-0.698,5.067-0.698,6.614v15.171c0,1.548,1.253,2.802,2.799,2.802h8.971
	c0.573,0.576,1.359,0.936,2.232,0.936h12.146c1.729,0,3.139-1.411,3.139-3.142V9.872c0-0.294,0.207-0.826,0.408-1.339
	C31.456,7.002,32.354,4.692,29.938,3.327z M2.408,8.343c-0.128,0-0.232-0.103-0.232-0.232c0-0.131,0.105-0.234,0.232-0.234
	c0.13,0,0.235,0.104,0.235,0.234C2.643,8.24,2.538,8.343,2.408,8.343z M10.813,9.124c0.299,0,0.541,0.239,0.541,0.546
	c0,0.298-0.242,0.541-0.541,0.541c-0.302,0-0.545-0.243-0.545-0.541C10.268,9.364,10.511,9.124,10.813,9.124z M6.222,12.858H5.286
	v-0.936h0.937V12.858z M10.54,15.891c-0.15,0-0.271-0.119-0.271-0.272c0-0.15,0.121-0.271,0.271-0.271
	c0.149,0,0.273,0.121,0.273,0.271C10.813,15.772,10.689,15.891,10.54,15.891z M12.29,20.793h-1.477v-0.387h1.477V20.793z
	 M13.045,13.431c-0.419,0-0.756-0.338-0.756-0.753c0-0.416,0.337-0.756,0.756-0.756c0.414,0,0.751,0.34,0.751,0.756
	C13.796,13.093,13.459,13.431,13.045,13.431z M17.347,19.238H16.26v-0.778h1.087V19.238z M29.768,8.112
	c-0.258,0.669-0.483,1.247-0.483,1.761v13.85c0,1.087-0.886,1.974-1.973,1.974h-8.925c0.991-0.431,1.684-1.419,1.684-2.569V7.956
	c0-1.091,1.391-3.081,1.148-4.761c0.083,0,0.171-0.002,0.255-0.002c3.504,0,6.676,0.465,7.892,1.152
	C30.793,5.148,30.451,6.358,29.768,8.112z"/>
</svg>
