<?xml version="1.0" encoding="utf-8"?>
<!-- Generator: Adobe Illustrator 17.1.0, SVG Export Plug-In . SVG Version: 6.00 Build 0)  -->
<!DOCTYPE svg PUBLIC "-//W3C//DTD SVG 1.1//EN" "http://www.w3.org/Graphics/SVG/1.1/DTD/svg11.dtd">
<svg version="1.1" id="Layer_1" xmlns="http://www.w3.org/2000/svg" xmlns:xlink="http://www.w3.org/1999/xlink" x="0px" y="0px"
	 viewBox="0 0 33.622 44.171" enable-background="new 0 0 33.622 44.171" xml:space="preserve">
<path d="M26.38,28.388c-0.38-0.052-0.768-0.08-1.162-0.08c-1.16,0-2.267,0.178-3.274,0.512c-3.397-5.574-7.607-14.09-6.188-20.226
	c0.105,0.641,0.249,1.247,0.422,1.825c0.546,1.745,1.439,3.154,2.586,4.323c1.155,1.158,2.566,2.069,4.36,2.588
	c0.902,0.259,1.88,0.435,3.001,0.453c1.131-0.004,2.358-0.08,3.871-0.622c-0.112-1.148-0.273-2.114-0.484-3.049
	c-0.217-0.923-0.502-1.758-0.84-2.55c-0.669-1.578-1.594-2.898-2.72-4.025c-1.132-1.124-2.455-2.063-4.084-2.711
	c-0.991-0.377-2.046-0.692-3.282-0.835c1.438-1.181,3.378-2.032,5.8-2.538c0.278-0.015,0.555-0.025,0.833-0.025V0
	C21.26,0,17.877,1.419,15.17,4.224c-6.354,6.573-7.348,18.922-7.476,24.112C3.387,28.61,0,31.361,0,35.765
	c0,4.641,3.765,8.406,8.405,8.406c4.643,0,8.407-3.766,8.407-8.406c0-4.25-3.15-6.81-7.244-7.377
	c-0.144-0.019-0.288-0.033-0.435-0.043c0.132-4.599,0.971-14.963,5.627-21.4C14.759,6.952,14.755,6.96,14.75,6.97
	c-2.484,6.718,2.114,16.283,5.85,22.434c-2.281,1.225-3.787,3.426-3.787,6.361c0,4.641,3.764,8.406,8.405,8.406
	c4.642,0,8.404-3.766,8.404-8.406C33.622,31.515,30.473,28.954,26.38,28.388z M16.767,5.119c2.062,2.222,8.649,8.48,8.649,8.48
	c-6.453-4.179-9.117-7.849-9.117-7.849L16.767,5.119z"/>
</svg>
