<?xml version="1.0" encoding="utf-8"?>
<!-- Generator: Adobe Illustrator 17.1.0, SVG Export Plug-In . SVG Version: 6.00 Build 0)  -->
<!DOCTYPE svg PUBLIC "-//W3C//DTD SVG 1.1//EN" "http://www.w3.org/Graphics/SVG/1.1/DTD/svg11.dtd">
<svg version="1.1" id="Layer_1" xmlns="http://www.w3.org/2000/svg" xmlns:xlink="http://www.w3.org/1999/xlink" x="0px" y="0px"
	 viewBox="0 0 38.226 32.744" enable-background="new 0 0 38.226 32.744" xml:space="preserve">
<g>
	<path fill-rule="evenodd" clip-rule="evenodd" d="M7.404,1.295L6.982,9.271H5.151L4.995,1.132H3.726L3.53,9.271H1.968L1.322,1.295
		H0v8.25l0.011,0.003c0.084,2.632,1.383,2.889,3.144,3.638H3.121v5.512v0.001v13.374c1.51,1.511,2.678,0.001,2.678,0.001
		l0.005-13.595H5.799v-5.291c0,0,2.884-1.008,2.968-3.643h0.012l-0.004-8.25H7.404z"/>
	<path fill-rule="evenodd" clip-rule="evenodd" d="M16.959,0.745h-1.87V31.71h3.735V15.341h3.238
		c1.861-8.135-3.238-14.596-3.238-14.596H16.959z"/>
	<path fill-rule="evenodd" clip-rule="evenodd" d="M33.194,0c-2.782,0-5.035,3.364-5.035,7.517c0,3.321,1.443,6.133,3.443,7.127
		v17.02h3.353V14.547c1.908-1.068,3.27-3.809,3.27-7.03C38.226,3.364,35.974,0,33.194,0z"/>
</g>
</svg>
