<?xml version="1.0" encoding="utf-8"?>
<!-- Generator: Adobe Illustrator 17.0.0, SVG Export Plug-In . SVG Version: 6.00 Build 0)  -->
<!DOCTYPE svg PUBLIC "-//W3C//DTD SVG 1.1//EN" "http://www.w3.org/Graphics/SVG/1.1/DTD/svg11.dtd">
<svg version="1.1" id="Layer_1" xmlns="http://www.w3.org/2000/svg" xmlns:xlink="http://www.w3.org/1999/xlink" x="0px" y="0px"
	 width="57.5px" height="57.5px" viewBox="0 0 57.5 57.5" enable-background="new 0 0 57.5 57.5" xml:space="preserve">
<g>
	<path fill="#444444" d="M28.75,7c1.045,0,2.083,0.075,3.107,0.222c-1.045,2.311-1.615,4.86-1.615,7.506
		c0,10.03,8.16,18.191,18.19,18.191c0.564,0,1.125-0.027,1.682-0.079C48.195,42.884,39.345,50.5,28.75,50.5
		C16.757,50.5,7,40.743,7,28.75S16.757,7,28.75,7 M28.75,0C12.872,0,0,12.872,0,28.75C0,44.628,12.872,57.5,28.75,57.5
		S57.5,44.628,57.5,28.75c0-2.252-0.268-4.442-0.758-6.545c-2.049,2.275-5.007,3.714-8.31,3.714c-6.18,0-11.19-5.01-11.19-11.191
		c0-4.63,2.813-8.604,6.823-10.306C39.63,1.625,34.381,0,28.75,0L28.75,0z"/>
</g>
</svg>
