<?xml version="1.0" encoding="utf-8"?>
<!-- Generator: Adobe Illustrator 17.0.2, SVG Export Plug-In . SVG Version: 6.00 Build 0)  -->
<!DOCTYPE svg PUBLIC "-//W3C//DTD SVG 1.1//EN" "http://www.w3.org/Graphics/SVG/1.1/DTD/svg11.dtd">
<svg version="1.1" id="Layer_1" xmlns="http://www.w3.org/2000/svg" xmlns:xlink="http://www.w3.org/1999/xlink" x="0px" y="0px"
	 width="47.886px" height="47.809px" viewBox="0 0 47.886 47.809" enable-background="new 0 0 47.886 47.809" xml:space="preserve">
<g>
	<path d="M23.903,47.809C10.723,47.809,0,37.084,0,23.904S10.723,0,23.903,0c3.096,0,6.119,0.589,8.983,1.752l2.381,0.963
		l-0.393,2.54C34.759,6.007,34.7,6.768,34.7,7.514c0,6.545,4.403,12.337,10.708,14.086l2.478,0.689l-0.101,2.567
		C47.279,37.727,36.788,47.809,23.903,47.809z M23.903,6.493c-9.599,0-17.41,7.81-17.41,17.411s7.81,17.411,17.41,17.411
		c8.588,0,15.715-6.149,17.145-14.376c-7.682-3.277-12.842-10.912-12.842-19.425c0-0.16,0.002-0.32,0.005-0.48
		C26.81,6.674,25.368,6.493,23.903,6.493z"/>
</g>
</svg>
