<?xml version="1.0" encoding="utf-8"?>
<!-- Generator: Adobe Illustrator 17.1.0, SVG Export Plug-In . SVG Version: 6.00 Build 0)  -->
<!DOCTYPE svg PUBLIC "-//W3C//DTD SVG 1.1//EN" "http://www.w3.org/Graphics/SVG/1.1/DTD/svg11.dtd">
<svg version="1.1" id="Layer_1" xmlns="http://www.w3.org/2000/svg" xmlns:xlink="http://www.w3.org/1999/xlink" x="0px" y="0px"
	 viewBox="0 0 41.429 37.421" enable-background="new 0 0 41.429 37.421" xml:space="preserve">
<g>
	<g>
		<g>
			<g>
				<path d="M41.429,22.962c0,7.185-8.191,13.007-18.296,13.007c-10.103,0-18.294-5.821-18.294-13.007"/>
			</g>
		</g>
	</g>
	<g>
		<g>
			<g>
				<rect x="4.897" y="17.601" width="36.531" height="4.832"/>
			</g>
		</g>
	</g>
	<g>
		<g>
			<g>
				<rect x="18.458" y="35.625" width="9.408" height="1.796"/>
			</g>
		</g>
	</g>
	<g>
		<g>
			<g>
				<rect x="-0.091" y="10.614" transform="matrix(0.4612 0.8873 -0.8873 0.4612 16.5476 -4.8138)" width="24.656" height="1.207"/>
			</g>
		</g>
	</g>
	<g>
		<g>
			<g>
				<rect x="-3.567" y="10.611" transform="matrix(0.6745 0.7383 -0.7383 0.6745 11.1318 -2.818)" width="24.658" height="1.208"/>
			</g>
		</g>
	</g>
	<g>
		<g>
			<g>
				<path d="M22.397,21.877c-0.032,0-0.067-0.003-0.102-0.008c-0.616-0.058-1.016-0.637-1.282-1.184
					c-0.476,0.456-1.262,0.631-2.323,0.536l0.086-0.91c0.632,0.057,1.442,0.033,1.721-0.437c0.04-0.063,0.074-0.15,0.102-0.257
					c-0.172-0.573-0.222-1.048-0.194-1.449c-0.278-0.81-0.852-1.958-1.939-3.573l-0.082-0.124c-0.483-0.721-0.55-1.938,0.078-2.425
					c0.715-0.556,1.776-0.037,3.167,1.524c1.583,1.773,1.134,2.53,0.384,3.337c-0.292,0.316-0.59,0.633-0.678,1.154
					c0.16,0.527,0.239,1.031,0.201,1.48c0.046,0.147,0.106,0.303,0.175,0.463c0.371,0.884,0.625,0.949,0.67,0.956
					c0.411,0.003,1.258-1.255,1.948-2.296c0.022-0.036,0.047-0.067,0.07-0.104c-0.292-0.315-0.552-0.651-0.773-0.997
					c-0.651,1.08-0.731,2.62-0.731,2.641l-0.913-0.041c0.004-0.102,0.111-2.203,1.173-3.509c-0.156-0.383-0.251-0.77-0.284-1.142
					c-0.113-1.347,0.679-2.304,2.131-2.552c1.38-0.226,2.372,0.307,3.148,1.053c0.475-0.398,0.982-0.754,1.528-1.053
					c2.411-1.303,3.501-1.587,4.014-1.043c0.636,0.666-0.054,1.889-1.674,4.586c-0.303,0.504-0.775,1.166-1.442,1.193
					c-0.015,0-0.03,0-0.042,0c-0.726,0-1.237-0.721-1.826-1.554c-0.201-0.277-0.404-0.568-0.625-0.846
					c-0.274,0.273-0.543,0.561-0.797,0.856c1.883,0.778,4.147,2.155,3.938,3.399c-0.181,1.088-1.905,1.088-2.473,1.088
					c-1.339,0-2.638-0.587-3.674-1.445C24.008,20.799,23.287,21.877,22.397,21.877z M25.577,18.438
					c0.868,0.75,1.974,1.292,3.17,1.292c1.25,0,1.563-0.262,1.575-0.326c0.065-0.383-1.297-1.609-3.639-2.506
					C26.286,17.408,25.919,17.935,25.577,18.438z M24.262,16.85c0.179,0.315,0.398,0.63,0.658,0.932
					c0.263-0.386,0.542-0.781,0.844-1.184c-0.584-0.122-1.062-0.043-1.471,0.229C24.284,16.836,24.273,16.841,24.262,16.85z
					 M19.095,12.754c-0.036,0-0.06,0.005-0.071,0.016c-0.157,0.122-0.155,0.781,0.12,1.195l0.079,0.119
					c0.561,0.833,1.179,1.812,1.637,2.778c0.156-0.228,0.332-0.413,0.485-0.578c0.517-0.559,0.757-0.815-0.396-2.105
					C19.868,12.974,19.297,12.754,19.095,12.754z M28.762,14.691c0.253,0.314,0.479,0.632,0.689,0.928
					c0.367,0.52,0.824,1.164,1.08,1.164c0.027-0.001,0.259-0.016,0.689-0.732c0.803-1.333,1.885-3.138,1.781-3.544
					c-0.008,0.049-0.515-0.021-2.89,1.262C29.629,14.031,29.181,14.343,28.762,14.691z M25.616,13.827
					c-0.148,0-0.303,0.011-0.464,0.038c-0.987,0.171-1.446,0.697-1.372,1.572c0.014,0.18,0.055,0.367,0.11,0.561
					c0.701-0.426,1.536-0.484,2.491-0.184c0.339-0.407,0.7-0.809,1.088-1.187C26.962,14.156,26.365,13.827,25.616,13.827z"/>
			</g>
		</g>
	</g>
</g>
</svg>
